<svg width="1920" height="1080" viewBox="0 0 1920 1080" fill="none" xmlns="http://www.w3.org/2000/svg">
<g clip-path="url(#clip0_1_7)">
<line y1="43" x2="1920.07" y2="43" stroke="#037FA6" stroke-opacity="0.2" stroke-width="2"/>
<line y1="65" x2="1920.07" y2="65" stroke="#037FA6" stroke-opacity="0.2" stroke-width="2"/>
<line y1="87" x2="1920.07" y2="87" stroke="#037FA6" stroke-opacity="0.2" stroke-width="2"/>
<line y1="22" x2="1920.07" y2="22" stroke="#037FA6" stroke-opacity="0.2" stroke-width="2"/>
<line y1="151" x2="1920.07" y2="151" stroke="#037FA6" stroke-opacity="0.2" stroke-width="2"/>
<line y1="173" x2="1920.07" y2="173" stroke="#037FA6" stroke-opacity="0.2" stroke-width="2"/>
<line y1="195" x2="1920.07" y2="195" stroke="#037FA6" stroke-opacity="0.2" stroke-width="2"/>
<line y1="130" x2="1920.07" y2="130" stroke="#037FA6" stroke-opacity="0.2" stroke-width="2"/>
<line y1="259" x2="1920.07" y2="259" stroke="#037FA6" stroke-opacity="0.2" stroke-width="2"/>
<line y1="281" x2="1920.07" y2="281" stroke="#037FA6" stroke-opacity="0.2" stroke-width="2"/>
<line y1="303" x2="1920.07" y2="303" stroke="#037FA6" stroke-opacity="0.2" stroke-width="2"/>
<line y1="238" x2="1920.07" y2="238" stroke="#037FA6" stroke-opacity="0.2" stroke-width="2"/>
<line y1="367" x2="1920.07" y2="367" stroke="#037FA6" stroke-opacity="0.2" stroke-width="2"/>
<line y1="389" x2="1920.07" y2="389" stroke="#037FA6" stroke-opacity="0.2" stroke-width="2"/>
<line y1="412" x2="1920.07" y2="412" stroke="#037FA6" stroke-opacity="0.2" stroke-width="2"/>
<line y1="346" x2="1920.07" y2="346" stroke="#037FA6" stroke-opacity="0.2" stroke-width="2"/>
<line y1="476" x2="1920.07" y2="476" stroke="#037FA6" stroke-opacity="0.2" stroke-width="2"/>
<line y1="498" x2="1920.07" y2="498" stroke="#037FA6" stroke-opacity="0.2" stroke-width="2"/>
<line y1="520" x2="1920.07" y2="520" stroke="#037FA6" stroke-opacity="0.2" stroke-width="2"/>
<line y1="455" x2="1920.07" y2="455" stroke="#037FA6" stroke-opacity="0.2" stroke-width="2"/>
<line y1="584" x2="1920.07" y2="584" stroke="#037FA6" stroke-opacity="0.2" stroke-width="2"/>
<line y1="606" x2="1920.07" y2="606" stroke="#037FA6" stroke-opacity="0.2" stroke-width="2"/>
<line y1="628" x2="1920.07" y2="628" stroke="#037FA6" stroke-opacity="0.2" stroke-width="2"/>
<line y1="563" x2="1920.07" y2="563" stroke="#037FA6" stroke-opacity="0.2" stroke-width="2"/>
<line y1="692" x2="1920.07" y2="692" stroke="#037FA6" stroke-opacity="0.2" stroke-width="2"/>
<line y1="714" x2="1920.07" y2="714" stroke="#037FA6" stroke-opacity="0.2" stroke-width="2"/>
<line y1="736" x2="1920.07" y2="736" stroke="#037FA6" stroke-opacity="0.2" stroke-width="2"/>
<line y1="736" x2="1920.07" y2="736" stroke="#037FA6" stroke-opacity="0.2" stroke-width="2"/>
<line y1="671" x2="1920.07" y2="671" stroke="#037FA6" stroke-opacity="0.2" stroke-width="2"/>
<line y1="800" x2="1920.07" y2="800" stroke="#037FA6" stroke-opacity="0.2" stroke-width="2"/>
<line y1="822" x2="1920.07" y2="822" stroke="#037FA6" stroke-opacity="0.2" stroke-width="2"/>
<line y1="844" x2="1920.07" y2="844" stroke="#037FA6" stroke-opacity="0.2" stroke-width="2"/>
<line y1="844" x2="1920.07" y2="844" stroke="#037FA6" stroke-opacity="0.2" stroke-width="2"/>
<line y1="779" x2="1920.07" y2="779" stroke="#037FA6" stroke-opacity="0.2" stroke-width="2"/>
<line y1="908" x2="1920.07" y2="908" stroke="#037FA6" stroke-opacity="0.2" stroke-width="2"/>
<line y1="930" x2="1920.07" y2="930" stroke="#037FA6" stroke-opacity="0.2" stroke-width="2"/>
<line y1="952" x2="1920.07" y2="952" stroke="#037FA6" stroke-opacity="0.2" stroke-width="2"/>
<line y1="952" x2="1920.07" y2="952" stroke="#037FA6" stroke-opacity="0.2" stroke-width="2"/>
<line y1="887" x2="1920.07" y2="887" stroke="#037FA6" stroke-opacity="0.2" stroke-width="2"/>
<line y1="1016" x2="1920.07" y2="1016" stroke="#037FA6" stroke-opacity="0.2" stroke-width="2"/>
<line y1="1038" x2="1920.07" y2="1038" stroke="#037FA6" stroke-opacity="0.2" stroke-width="2"/>
<line y1="1060" x2="1920.07" y2="1060" stroke="#037FA6" stroke-opacity="0.2" stroke-width="2"/>
<line y1="1060" x2="1920.07" y2="1060" stroke="#037FA6" stroke-opacity="0.2" stroke-width="2"/>
<line y1="995" x2="1920.07" y2="995" stroke="#037FA6" stroke-opacity="0.2" stroke-width="2"/>
</g>
<defs>
<clipPath id="clip0_1_7">
<rect width="1920" height="1080" fill="white"/>
</clipPath>
</defs>
</svg>
